# xmcd CD database file
#
# Track frame offsets:
#	150
#	15928
#	33423
#	47078
#	70629
#	86726
#	104128
#	122613
#	136818
#	148578
#	161415
#	180009
#	195212
#	210934
#	228150
#	246403
#	261772
#	274631
#	288925
#
# Disc length: 4068 seconds
#
# Revision: 7
# Processed by: cddbd v1.5.2PL0 Copyright (c) Steve Scherf et al.
# Submitted via: CDex 1.85
#
DISCID=f60fe213
DTITLE=Il Grande Blues 01 -  Lungo Le Rive Del Mississippi
DYEAR=2004
DGENRE=Blues
TTITLE0=She Caught The Katy And Left Me A Mmule To Ride [Taj Mahal]
TTITLE1=Queen Bee [Koko Taylor, feat. Lonnie Brooks]
TTITLE2=One Bourbon, One Scotch, One Beer [John Lee Hooker]
TTITLE3=She Don't Play The Rules [John Mayall feat. Mick Taylor]
TTITLE4=Since I Fell For You [Dr. John]
TTITLE5=Born In Louisiana [Clarence "Gatemouth" Brown]
TTITLE6=I Ain't Superstitious [Willie Dixon]
TTITLE7=Ice Pick [Albert Collins]
TTITLE8=Bring It Home [Sonny Boy Williamson II]
TTITLE9=(I'm Your) Hoochie Coochie Man [Muddy Waters]
TTITLE10=Midnight Special [Sonny Terry and Brownie McGhee]
TTITLE11=Take This Hammer [Big Bill Broonzy]
TTITLE12=Leland Missisipi Blues [Johnny Winter]
TTITLE13=Hoodoo She Do [Lonnie Brooks]
TTITLE14=Railroad Bill [John Jackson]
TTITLE15=In The Wee Wee Hours [Professor Longhair]
TTITLE16=Hound Dog [Big Mama Thornton]
TTITLE17=Reconsider Bay [Lowell Fulson]
TTITLE18=Junker's Blues [Willie DeVille]
EXTD=YEAR: 2004
EXTT0=
EXTT1=
EXTT2=
EXTT3=
EXTT4=
EXTT5=
EXTT6=
EXTT7=
EXTT8=
EXTT9=
EXTT10=
EXTT11=
EXTT12=
EXTT13=
EXTT14=
EXTT15=
EXTT16=
EXTT17=
EXTT18=
PLAYORDER=
